<svg width="250" height="45" viewBox="0 0 250 45" fill="none" xmlns="http://www.w3.org/2000/svg">
<path d="M24.9177 0.575684V23.4375C24.9177 24.5066 24.0953 25.2467 23.1085 25.2467H20.3947C20.2302 25.2467 20.1479 25.4112 20.1479 25.4934V44.6546C20.8058 44.6546 21.4637 44.8191 22.2039 44.8191C34.4572 44.8191 44.4078 34.8684 44.4078 22.6152C44.4078 11.3487 35.9374 1.89147 24.9177 0.575684ZM24.4243 34.7862C22.8618 34.7862 21.7104 33.4704 21.7104 32.0724C21.7104 30.5099 23.0262 29.3586 24.4243 29.3586C25.9868 29.3586 27.1381 30.6744 27.1381 32.0724C27.3026 33.5527 25.9868 34.7862 24.4243 34.7862ZM30.921 34.7862C29.3585 34.7862 28.2072 33.4704 28.2072 32.0724C28.2072 30.5099 29.5229 29.3586 30.921 29.3586C32.4835 29.3586 33.6348 30.6744 33.6348 32.0724C33.6348 33.4704 32.5657 34.7862 30.921 34.7862ZM37.4999 34.7862C35.9374 34.7862 34.7861 33.4704 34.7861 32.0724C34.7861 30.5099 36.1019 29.3586 37.4999 29.3586C39.0624 29.3586 40.2137 30.6744 40.2137 32.0724C40.2137 33.4704 39.0624 34.7862 37.4999 34.7862Z" fill="#00B956"/>
<path d="M22.2039 0.493652C9.95066 0.493652 0 10.4443 0 22.6976C0 33.4706 7.48355 42.27 17.5164 44.3259V24.3423C17.5164 23.4377 18.3388 22.6976 19.1612 22.5331H20.0658H21.875C22.0395 22.5331 22.1217 22.3687 22.1217 22.2864L22.2039 0.493652ZM17.9276 18.7502C16.3651 18.7502 15.2138 17.4344 15.2138 16.0364C15.2138 14.4739 16.5296 13.3226 17.9276 13.3226C19.4901 13.3226 20.6414 14.6384 20.6414 16.0364C20.6414 17.4344 19.4079 18.7502 17.9276 18.7502Z" fill="#00B956"/>
<path d="M244.49 12.5825V20.9707H233.306V12.5825H227.632V34.7865H233.306V25.8226H244.49V34.7865H250V12.5825H244.49Z" fill="#00B956"/>
<path d="M152.056 15.1316C151.151 13.1579 149.342 12.0889 147.533 12.0889C145.724 12.0889 143.832 13.1579 143.01 15.1316L134.046 34.8685H139.967L141.941 30.181H153.454L155.427 34.8685H161.349L152.056 15.1316ZM143.503 25.7402L146.875 17.5987C147.039 17.352 147.122 17.352 147.286 17.352C147.451 17.352 147.697 17.352 147.697 17.5987L151.069 25.7402H143.503Z" fill="#00B956"/>
<path d="M85.9374 8.63497C83.3059 8.63497 81.6611 10.033 80.4276 12.8291L73.273 29.5231L66.0361 12.7468C64.8848 10.033 63.1578 8.55273 60.5263 8.55273C58.0591 8.55273 55.592 10.1975 55.592 14.0626V34.7041H61.1019V14.8027L68.421 31.3323C69.3256 33.7172 71.0526 35.1152 73.273 35.1152C75.6578 35.1152 77.2203 33.7172 78.1249 31.3323L85.444 14.8027V34.9508H90.9539V14.3093C90.8716 10.4442 88.4045 8.63497 85.9374 8.63497Z" fill="#00B956"/>
<path d="M100.658 30.0989C100.411 30.0989 100.082 29.8522 100.082 29.5232V25.5759H113.898V21.0528H100.082V17.6811C100.082 17.4344 100.329 17.1055 100.658 17.1055H114.391V12.418H97.944C95.9703 12.418 94.6545 13.9805 94.6545 15.7074V31.2502C94.6545 32.8949 96.0526 34.5397 97.944 34.5397H114.391V29.8522H100.658V30.0989Z" fill="#00B956"/>
<path d="M123.684 34.7865V17.8457C123.684 17.599 123.931 17.27 124.26 17.27H137.993V12.5825H121.546C119.572 12.5825 118.257 14.145 118.257 15.872V34.7042L123.684 34.7865Z" fill="#00B956"/>
<path d="M224.013 23.7667C224.013 16.0364 220.641 12.418 212.253 12.418H210.279C201.891 12.418 198.52 16.1186 198.52 23.7667C198.52 31.3324 201.891 35.1153 210.279 35.1153H212.089C220.641 34.9509 224.013 31.3324 224.013 23.7667ZM212.089 30.4278H210.279C205.756 30.4278 203.865 28.3719 203.865 23.7667C203.865 19.3259 205.427 17.1055 210.279 17.1055H212.089C216.776 17.1055 218.503 19.3259 218.503 23.7667C218.503 28.2897 216.776 30.4278 212.089 30.4278Z" fill="#00B956"/>
<path d="M183.141 9.12842H172.122C163.898 9.12842 160.608 13.3225 160.608 20.4771C160.608 21.6284 160.773 22.6975 160.855 23.6021C161.76 28.7008 164.802 31.8258 172.45 31.8258H174.918V34.7041H180.427V31.8258H182.812C190.543 31.8258 193.585 28.7008 194.408 23.6021C194.572 22.6975 194.654 21.6284 194.654 20.4771C194.572 13.3225 191.2 9.12842 183.141 9.12842ZM174.753 27.2205H172.286C168.503 27.2205 167.187 25.8225 166.365 23.5199C166.118 22.6975 166.118 21.5462 166.118 20.3949C166.118 15.7074 168.339 13.7337 171.464 13.7337H174.835V27.2205H174.753ZM188.898 23.7666C188.075 25.987 186.677 27.4672 182.977 27.4672H180.51V13.8982H183.881C187.006 13.8982 189.227 15.8718 189.227 20.5593C189.145 21.7929 189.145 22.7797 188.898 23.7666Z" fill="#00B956"/>
</svg>
